<mxfile host="app.diagrams.net" modified="2023-06-02T17:01:50.283Z" agent="Mozilla/5.0 (Windows NT 10.0; Win64; x64) AppleWebKit/537.36 (KHTML, like Gecko) Chrome/113.0.0.0 Safari/537.36" etag="1rn9RYY5B4x9JuN-MJ29" version="21.3.6" type="github" pages="3">
  <diagram name="architecture" id="RjCxhjMG5KbP_nqhRtp3">
    <mxGraphModel dx="1659" dy="672" grid="0" gridSize="10" guides="1" tooltips="1" connect="1" arrows="1" fold="1" page="0" pageScale="1" pageWidth="827" pageHeight="1169" math="0" shadow="0">
      <root>
        <mxCell id="0" />
        <mxCell id="1" parent="0" />
        <mxCell id="zdwxxOiPnPcNy7VdiFuk-1" value="" style="rounded=0;whiteSpace=wrap;html=1;fillColor=#fff2cc;strokeColor=#d6b656;opacity=30;" vertex="1" parent="1">
          <mxGeometry x="-220" y="1034" width="875" height="228" as="geometry" />
        </mxCell>
        <mxCell id="uJ_gCBMD8Is41iQEiKez-29" value="" style="rounded=0;whiteSpace=wrap;html=1;fillColor=#dae8fc;strokeColor=#6c8ebf;opacity=30;" parent="1" vertex="1">
          <mxGeometry x="-220" y="17" width="874" height="592" as="geometry" />
        </mxCell>
        <mxCell id="uJ_gCBMD8Is41iQEiKez-22" value="We take the most up to date version of the&lt;br&gt;scraped data&lt;br&gt;(python &amp;amp; beautifulsoup4)" style="text;html=1;align=center;verticalAlign=middle;resizable=0;points=[];autosize=1;strokeColor=none;fillColor=none;" parent="1" vertex="1">
          <mxGeometry x="-117" y="423" width="243" height="55" as="geometry" />
        </mxCell>
        <mxCell id="QvHbqH3VG2zDnp77krn9-10" value="webscrapping.py" style="text;html=1;strokeColor=none;fillColor=none;align=center;verticalAlign=middle;whiteSpace=wrap;rounded=0;fontStyle=3" parent="1" vertex="1">
          <mxGeometry x="567" y="22" width="60" height="30" as="geometry" />
        </mxCell>
        <mxCell id="uJ_gCBMD8Is41iQEiKez-8" style="edgeStyle=orthogonalEdgeStyle;rounded=0;orthogonalLoop=1;jettySize=auto;html=1;exitX=0.5;exitY=1;exitDx=0;exitDy=0;entryX=0.5;entryY=0;entryDx=0;entryDy=0;" parent="1" source="DFwWn_DKLroZGIDrzsYz-1" target="3sKjhCG4QqQidB9nRvCR-2" edge="1">
          <mxGeometry relative="1" as="geometry" />
        </mxCell>
        <mxCell id="DFwWn_DKLroZGIDrzsYz-1" value="https://www.allocine.fr/film/meilleurs/" style="rounded=1;whiteSpace=wrap;html=1;" parent="1" vertex="1">
          <mxGeometry x="208.5" y="60" width="288" height="60" as="geometry" />
        </mxCell>
        <mxCell id="3sKjhCG4QqQidB9nRvCR-4" value="&lt;font style=&quot;font-size: 6px;&quot;&gt;scrapped_films_YYYYMMHHMM.csv&lt;/font&gt;" style="swimlane;childLayout=stackLayout;horizontal=1;startSize=50;horizontalStack=0;rounded=1;fontSize=14;fontStyle=0;strokeWidth=2;resizeParent=0;resizeLast=1;shadow=0;dashed=0;align=center;arcSize=4;whiteSpace=wrap;html=1;" parent="1" vertex="1">
          <mxGeometry x="208.5" y="192" width="125" height="103" as="geometry" />
        </mxCell>
        <mxCell id="3sKjhCG4QqQidB9nRvCR-5" value="&lt;font style=&quot;font-size: 6px;&quot;&gt;scrapped_films_YYYYMMHHMM.csv&lt;/font&gt;" style="swimlane;childLayout=stackLayout;horizontal=1;startSize=50;horizontalStack=0;rounded=1;fontSize=14;fontStyle=0;strokeWidth=2;resizeParent=0;resizeLast=1;shadow=0;dashed=0;align=center;arcSize=4;whiteSpace=wrap;html=1;labelBackgroundColor=#FFFFFF;" parent="1" vertex="1">
          <mxGeometry x="369.5" y="192" width="125" height="103" as="geometry" />
        </mxCell>
        <mxCell id="uJ_gCBMD8Is41iQEiKez-9" style="edgeStyle=orthogonalEdgeStyle;rounded=0;orthogonalLoop=1;jettySize=auto;html=1;exitX=0.5;exitY=1;exitDx=0;exitDy=0;entryX=0.5;entryY=0;entryDx=0;entryDy=0;" parent="1" source="3sKjhCG4QqQidB9nRvCR-2" target="Kb5XjLtIZUl5t38yNHnz-1" edge="1">
          <mxGeometry relative="1" as="geometry">
            <mxPoint x="351.8571428571431" y="352.6014600481308" as="targetPoint" />
          </mxGeometry>
        </mxCell>
        <mxCell id="3sKjhCG4QqQidB9nRvCR-2" value="&lt;font style=&quot;font-size: 6px;&quot;&gt;scrapped_films_YYYYMMHHMM.csv&lt;/font&gt;" style="swimlane;childLayout=stackLayout;horizontal=1;startSize=50;horizontalStack=0;rounded=1;fontSize=14;fontStyle=0;strokeWidth=2;resizeParent=0;resizeLast=1;shadow=0;dashed=0;align=center;arcSize=4;whiteSpace=wrap;html=1;labelBackgroundColor=default;" parent="1" vertex="1">
          <mxGeometry x="290" y="214" width="125" height="103" as="geometry" />
        </mxCell>
        <mxCell id="uJ_gCBMD8Is41iQEiKez-30" value="" style="rounded=0;whiteSpace=wrap;html=1;fillColor=#d5e8d4;strokeColor=#82b366;opacity=30;" parent="1" vertex="1">
          <mxGeometry x="-220" y="616" width="874" height="135" as="geometry" />
        </mxCell>
        <mxCell id="QvHbqH3VG2zDnp77krn9-6" value="preprocessing.py" style="text;html=1;strokeColor=none;fillColor=none;align=center;verticalAlign=middle;whiteSpace=wrap;rounded=0;fontStyle=3" parent="1" vertex="1">
          <mxGeometry x="566" y="622" width="60" height="30" as="geometry" />
        </mxCell>
        <mxCell id="uJ_gCBMD8Is41iQEiKez-10" value="df_preprocessed" style="swimlane;childLayout=stackLayout;horizontal=1;startSize=50;horizontalStack=0;rounded=1;fontSize=14;fontStyle=0;strokeWidth=2;resizeParent=0;resizeLast=1;shadow=0;dashed=0;align=center;arcSize=4;whiteSpace=wrap;html=1;" parent="1" vertex="1">
          <mxGeometry x="281.75" y="652" width="141.5" height="68" as="geometry" />
        </mxCell>
        <mxCell id="uJ_gCBMD8Is41iQEiKez-13" style="edgeStyle=orthogonalEdgeStyle;rounded=0;orthogonalLoop=1;jettySize=auto;html=1;exitX=0.5;exitY=1;exitDx=0;exitDy=0;entryX=0.5;entryY=0;entryDx=0;entryDy=0;" parent="1" source="Kb5XjLtIZUl5t38yNHnz-2" target="uJ_gCBMD8Is41iQEiKez-10" edge="1">
          <mxGeometry relative="1" as="geometry" />
        </mxCell>
        <mxCell id="Kb5XjLtIZUl5t38yNHnz-1" value="scrapped_films_YYYYMMHHMM.csv" style="swimlane;childLayout=stackLayout;horizontal=1;startSize=50;horizontalStack=0;rounded=1;fontSize=14;fontStyle=0;strokeWidth=2;resizeParent=0;resizeLast=1;shadow=0;dashed=0;align=center;arcSize=4;whiteSpace=wrap;html=1;" parent="1" vertex="1">
          <mxGeometry x="233" y="405" width="239" height="188" as="geometry" />
        </mxCell>
        <mxCell id="Kb5XjLtIZUl5t38yNHnz-2" value="title&amp;nbsp; &amp;nbsp; &amp;nbsp; &amp;nbsp; &amp;nbsp; &amp;nbsp; &amp;nbsp; &amp;nbsp; &amp;nbsp; &amp;nbsp; &amp;nbsp; &amp;nbsp; &amp;nbsp; &amp;nbsp; &amp;nbsp; &amp;nbsp; &amp;nbsp; &amp;nbsp; &amp;nbsp; &amp;nbsp; &amp;nbsp; &amp;nbsp; &amp;nbsp; &amp;nbsp; &amp;nbsp;&lt;i&gt;varchar&lt;/i&gt;&lt;br&gt;duration&amp;nbsp; &amp;nbsp; &amp;nbsp; &amp;nbsp; &amp;nbsp; &amp;nbsp; &amp;nbsp; &amp;nbsp; &amp;nbsp; &amp;nbsp; &amp;nbsp; &amp;nbsp; &amp;nbsp; &amp;nbsp; &amp;nbsp; &amp;nbsp; &amp;nbsp; &amp;nbsp; &amp;nbsp; &amp;nbsp; &amp;nbsp;&lt;i&gt;varchar&lt;/i&gt;&lt;br&gt;genres&amp;nbsp; &amp;nbsp; &amp;nbsp; &amp;nbsp; &amp;nbsp; &amp;nbsp; &amp;nbsp; &amp;nbsp; &amp;nbsp; &amp;nbsp; &amp;nbsp; &amp;nbsp; &amp;nbsp; &amp;nbsp; &amp;nbsp; &amp;nbsp; &amp;nbsp; &amp;nbsp; &amp;nbsp; &amp;nbsp; &amp;nbsp; &amp;nbsp; &amp;nbsp; &amp;nbsp;&amp;nbsp;&lt;i&gt;char&lt;/i&gt;&lt;br&gt;director&amp;nbsp;&lt;span style=&quot;white-space: pre;&quot;&gt; &lt;/span&gt;&lt;span style=&quot;white-space: pre;&quot;&gt; &lt;/span&gt;&lt;span style=&quot;white-space: pre;&quot;&gt; &lt;/span&gt;&lt;span style=&quot;white-space: pre;&quot;&gt; &lt;/span&gt;&lt;span style=&quot;white-space: pre;&quot;&gt; &lt;/span&gt;&lt;span style=&quot;white-space: pre;&quot;&gt; &lt;/span&gt;&amp;nbsp; &amp;nbsp; &amp;nbsp; &amp;nbsp; &amp;nbsp; &amp;nbsp; &amp;nbsp; &amp;nbsp; &amp;nbsp; &amp;nbsp; &amp;nbsp; &amp;nbsp; &amp;nbsp; &amp;nbsp; &amp;nbsp; &amp;nbsp; &amp;nbsp; &amp;nbsp; &amp;nbsp; &amp;nbsp; &lt;i&gt;char&lt;/i&gt;&lt;br&gt;cast&lt;span style=&quot;white-space: pre;&quot;&gt; &lt;/span&gt;&lt;span style=&quot;white-space: pre;&quot;&gt; &lt;/span&gt;&lt;span style=&quot;white-space: pre;&quot;&gt; &lt;/span&gt;&lt;span style=&quot;white-space: pre;&quot;&gt; &lt;/span&gt;&lt;span style=&quot;white-space: pre;&quot;&gt; &lt;/span&gt;&lt;span style=&quot;white-space: pre;&quot;&gt; &lt;/span&gt;&amp;nbsp; &amp;nbsp; &amp;nbsp; &amp;nbsp; &amp;nbsp; &amp;nbsp; &amp;nbsp; &amp;nbsp; &amp;nbsp; &amp;nbsp; &amp;nbsp; &amp;nbsp; &amp;nbsp; &amp;nbsp; &amp;nbsp; &amp;nbsp; &amp;nbsp; &amp;nbsp; &amp;nbsp; &amp;nbsp; &amp;nbsp; &amp;nbsp; &amp;nbsp; &lt;i&gt;char&lt;/i&gt;&lt;br&gt;synopsis&amp;nbsp; &amp;nbsp; &amp;nbsp; &amp;nbsp; &amp;nbsp; &amp;nbsp; &amp;nbsp; &amp;nbsp; &amp;nbsp; &amp;nbsp; &amp;nbsp; &amp;nbsp; &amp;nbsp; &amp;nbsp; &amp;nbsp; &amp;nbsp; &amp;nbsp; &amp;nbsp; &amp;nbsp; &amp;nbsp;&amp;nbsp;&lt;i&gt;varchar&lt;/i&gt;&lt;br&gt;rating&amp;nbsp; &amp;nbsp; &amp;nbsp; &amp;nbsp; &amp;nbsp; &amp;nbsp; &amp;nbsp; &amp;nbsp; &amp;nbsp; &amp;nbsp; &amp;nbsp; &amp;nbsp; &amp;nbsp; &amp;nbsp; &amp;nbsp; &amp;nbsp; &amp;nbsp; &amp;nbsp; &amp;nbsp; &amp;nbsp; &amp;nbsp; &amp;nbsp; &amp;nbsp; &amp;nbsp; &amp;nbsp;&lt;i&gt;float&lt;/i&gt;" style="align=left;strokeColor=none;fillColor=none;spacingLeft=4;fontSize=12;verticalAlign=top;resizable=0;rotatable=0;part=1;html=1;" parent="Kb5XjLtIZUl5t38yNHnz-1" vertex="1">
          <mxGeometry y="50" width="239" height="138" as="geometry" />
        </mxCell>
        <mxCell id="cxUHyoQVY_qUX_Ju6CSP-2" value="&lt;b&gt;modeling.py&lt;/b&gt;" style="text;html=1;strokeColor=none;fillColor=none;align=center;verticalAlign=middle;whiteSpace=wrap;rounded=0;fontStyle=2" parent="1" vertex="1">
          <mxGeometry x="580" y="1038" width="60" height="30" as="geometry" />
        </mxCell>
        <mxCell id="cxUHyoQVY_qUX_Ju6CSP-3" value="predictions" style="swimlane;childLayout=stackLayout;horizontal=1;startSize=50;horizontalStack=0;rounded=1;fontSize=14;fontStyle=0;strokeWidth=2;resizeParent=0;resizeLast=1;shadow=0;dashed=0;align=center;arcSize=4;whiteSpace=wrap;html=1;fillColor=default;swimlaneFillColor=default;gradientColor=none;" parent="1" vertex="1">
          <mxGeometry x="239.5" y="1073" width="239" height="173" as="geometry" />
        </mxCell>
        <mxCell id="cxUHyoQVY_qUX_Ju6CSP-4" value="recom_date&amp;nbsp; &amp;nbsp; &amp;nbsp; &amp;nbsp; &amp;nbsp; &amp;nbsp; &amp;nbsp; &amp;nbsp; &amp;nbsp; &amp;nbsp; &amp;nbsp; &amp;nbsp; &amp;nbsp; &amp;nbsp; &amp;nbsp; &amp;nbsp; &amp;nbsp; &amp;nbsp; &amp;nbsp; &amp;nbsp;&lt;i&gt;bigint&lt;/i&gt;&lt;br&gt;dataframe&amp;nbsp; &amp;nbsp; &amp;nbsp; &amp;nbsp; &amp;nbsp; &amp;nbsp; &amp;nbsp; &amp;nbsp; &amp;nbsp; &amp;nbsp; &amp;nbsp; &amp;nbsp; &amp;nbsp; &amp;nbsp; &amp;nbsp; &amp;nbsp; &amp;nbsp; &amp;nbsp; &amp;nbsp; var&lt;i&gt;char&lt;/i&gt;&lt;br&gt;user_film&amp;nbsp; &amp;nbsp; &amp;nbsp; &amp;nbsp; &amp;nbsp; &amp;nbsp; &amp;nbsp; &amp;nbsp; &amp;nbsp; &amp;nbsp; &amp;nbsp; &amp;nbsp; &amp;nbsp; &amp;nbsp; &amp;nbsp; &amp;nbsp; &amp;nbsp; &amp;nbsp; &amp;nbsp; &amp;nbsp;var&lt;i&gt;char&lt;/i&gt;&lt;br&gt;film_index&amp;nbsp; &amp;nbsp; &amp;nbsp; &amp;nbsp; &amp;nbsp; &amp;nbsp; &amp;nbsp; &amp;nbsp; &amp;nbsp; &amp;nbsp; &amp;nbsp; &amp;nbsp; &amp;nbsp; &amp;nbsp; &amp;nbsp; &amp;nbsp; &amp;nbsp; &amp;nbsp; &amp;nbsp; &amp;nbsp; &amp;nbsp;&amp;nbsp;&lt;i&gt;char&lt;/i&gt;&lt;br&gt;recommended_films&amp;nbsp;&lt;span style=&quot;white-space: pre;&quot;&gt; &lt;/span&gt;&lt;span style=&quot;white-space: pre;&quot;&gt; &lt;/span&gt;&lt;span style=&quot;white-space: pre;&quot;&gt; &lt;/span&gt;&lt;span style=&quot;white-space: pre;&quot;&gt; &lt;/span&gt;&lt;span style=&quot;white-space: pre;&quot;&gt; &lt;/span&gt;&lt;span style=&quot;white-space: pre;&quot;&gt; &lt;/span&gt;&amp;nbsp; &amp;nbsp; &amp;nbsp; &amp;nbsp; &amp;nbsp; &amp;nbsp; &amp;nbsp; &amp;nbsp; &amp;nbsp; &amp;nbsp;&lt;i&gt;char&lt;/i&gt;&lt;br&gt;satisfaction&lt;span style=&quot;white-space: pre;&quot;&gt; &lt;/span&gt;&lt;span style=&quot;white-space: pre;&quot;&gt; &lt;/span&gt;&lt;span style=&quot;white-space: pre;&quot;&gt; &lt;/span&gt;&lt;span style=&quot;white-space: pre;&quot;&gt; &lt;/span&gt;&lt;span style=&quot;white-space: pre;&quot;&gt; &lt;/span&gt;&lt;span style=&quot;white-space: pre;&quot;&gt; &lt;/span&gt;&amp;nbsp; &amp;nbsp; &amp;nbsp; &amp;nbsp; &amp;nbsp; &amp;nbsp; &amp;nbsp; &amp;nbsp; &amp;nbsp; &amp;nbsp; &amp;nbsp; &amp;nbsp; &amp;nbsp; &amp;nbsp; &amp;nbsp; &amp;nbsp; &amp;nbsp; &amp;nbsp;&lt;i&gt;char&lt;/i&gt;" style="align=left;strokeColor=none;fillColor=none;spacingLeft=4;fontSize=12;verticalAlign=top;resizable=0;rotatable=0;part=1;html=1;" parent="cxUHyoQVY_qUX_Ju6CSP-3" vertex="1">
          <mxGeometry y="50" width="239" height="123" as="geometry" />
        </mxCell>
        <mxCell id="uJ_gCBMD8Is41iQEiKez-21" value="&lt;h1&gt;2&lt;/h1&gt;" style="ellipse;whiteSpace=wrap;html=1;aspect=fixed;" parent="1" vertex="1">
          <mxGeometry x="-190" y="423" width="50" height="50" as="geometry" />
        </mxCell>
        <mxCell id="uJ_gCBMD8Is41iQEiKez-31" value="&lt;h1&gt;3&lt;/h1&gt;" style="ellipse;whiteSpace=wrap;html=1;aspect=fixed;" parent="1" vertex="1">
          <mxGeometry x="-190" y="658.5" width="50" height="50" as="geometry" />
        </mxCell>
        <mxCell id="uJ_gCBMD8Is41iQEiKez-32" value="The data is transformed and cleaned&lt;br&gt;(python &amp;amp; pandas)" style="text;html=1;align=center;verticalAlign=middle;resizable=0;points=[];autosize=1;strokeColor=none;fillColor=none;" parent="1" vertex="1">
          <mxGeometry x="-117" y="667.5" width="213" height="41" as="geometry" />
        </mxCell>
        <mxCell id="uJ_gCBMD8Is41iQEiKez-33" value="" style="endArrow=none;dashed=1;html=1;dashPattern=1 3;strokeWidth=2;rounded=0;entryX=0.5;entryY=1;entryDx=0;entryDy=0;exitX=0.5;exitY=0;exitDx=0;exitDy=0;" parent="1" source="uJ_gCBMD8Is41iQEiKez-31" target="uJ_gCBMD8Is41iQEiKez-21" edge="1">
          <mxGeometry width="50" height="50" relative="1" as="geometry">
            <mxPoint x="265" y="650" as="sourcePoint" />
            <mxPoint x="315" y="600" as="targetPoint" />
          </mxGeometry>
        </mxCell>
        <mxCell id="uJ_gCBMD8Is41iQEiKez-20" value="We scrapped the data from the website allociné.&lt;br&gt;(python &amp;amp; beautifulsoup4)" style="text;html=1;align=center;verticalAlign=middle;resizable=0;points=[];autosize=1;strokeColor=none;fillColor=none;" parent="1" vertex="1">
          <mxGeometry x="-117" y="74" width="274" height="41" as="geometry" />
        </mxCell>
        <mxCell id="uJ_gCBMD8Is41iQEiKez-18" value="&lt;h1&gt;1&lt;/h1&gt;" style="ellipse;whiteSpace=wrap;html=1;aspect=fixed;" parent="1" vertex="1">
          <mxGeometry x="-190" y="65" width="50" height="50" as="geometry" />
        </mxCell>
        <mxCell id="uJ_gCBMD8Is41iQEiKez-36" value="" style="rounded=0;whiteSpace=wrap;html=1;fillColor=#e1d5e7;strokeColor=#9673a6;opacity=30;" parent="1" vertex="1">
          <mxGeometry x="-220" y="758" width="874" height="270" as="geometry" />
        </mxCell>
        <mxCell id="uJ_gCBMD8Is41iQEiKez-34" value="" style="endArrow=none;dashed=1;html=1;dashPattern=1 3;strokeWidth=2;rounded=0;entryX=0.5;entryY=1;entryDx=0;entryDy=0;exitX=0.5;exitY=0;exitDx=0;exitDy=0;" parent="1" source="uJ_gCBMD8Is41iQEiKez-21" target="uJ_gCBMD8Is41iQEiKez-18" edge="1">
          <mxGeometry width="50" height="50" relative="1" as="geometry">
            <mxPoint x="265" y="521" as="sourcePoint" />
            <mxPoint x="315" y="471" as="targetPoint" />
          </mxGeometry>
        </mxCell>
        <mxCell id="3sKjhCG4QqQidB9nRvCR-1" value="data_management.py" style="text;html=1;strokeColor=none;fillColor=none;align=center;verticalAlign=middle;whiteSpace=wrap;rounded=0;fontStyle=3" parent="1" vertex="1">
          <mxGeometry x="556" y="761" width="60" height="30" as="geometry" />
        </mxCell>
        <mxCell id="QvHbqH3VG2zDnp77krn9-3" value="films" style="swimlane;childLayout=stackLayout;horizontal=1;startSize=50;horizontalStack=0;rounded=1;fontSize=14;fontStyle=0;strokeWidth=2;resizeParent=0;resizeLast=1;shadow=0;dashed=0;align=center;arcSize=4;whiteSpace=wrap;html=1;" parent="1" vertex="1">
          <mxGeometry x="226.5" y="828" width="252" height="183" as="geometry" />
        </mxCell>
        <mxCell id="QvHbqH3VG2zDnp77krn9-4" value="title&amp;nbsp; &amp;nbsp; &amp;nbsp; &amp;nbsp; &amp;nbsp; &amp;nbsp; &amp;nbsp; &amp;nbsp; &amp;nbsp; &amp;nbsp; &amp;nbsp; &amp;nbsp; &amp;nbsp; &amp;nbsp; &amp;nbsp; &amp;nbsp; &amp;nbsp; &amp;nbsp; &amp;nbsp; &amp;nbsp; &amp;nbsp; &amp;nbsp; &amp;nbsp; &amp;nbsp; &amp;nbsp; &amp;nbsp;&lt;i&gt;varchar&lt;/i&gt;&lt;br&gt;genres&amp;nbsp; &amp;nbsp; &amp;nbsp; &amp;nbsp; &amp;nbsp; &amp;nbsp; &amp;nbsp; &amp;nbsp; &amp;nbsp; &amp;nbsp; &amp;nbsp; &amp;nbsp; &amp;nbsp; &amp;nbsp; &amp;nbsp; &amp;nbsp; &amp;nbsp; &amp;nbsp; &amp;nbsp; &amp;nbsp; &amp;nbsp; &amp;nbsp; &amp;nbsp; &amp;nbsp; &amp;nbsp;&amp;nbsp;&lt;i&gt;char&lt;/i&gt;&lt;br&gt;director&amp;nbsp;&lt;span style=&quot;white-space: pre;&quot;&gt; &lt;/span&gt;&lt;span style=&quot;white-space: pre;&quot;&gt; &lt;/span&gt;&lt;span style=&quot;white-space: pre;&quot;&gt; &lt;/span&gt;&lt;span style=&quot;white-space: pre;&quot;&gt; &lt;/span&gt;&lt;span style=&quot;white-space: pre;&quot;&gt; &lt;/span&gt;&lt;span style=&quot;white-space: pre;&quot;&gt; &lt;/span&gt;&amp;nbsp; &amp;nbsp; &amp;nbsp; &amp;nbsp; &amp;nbsp; &amp;nbsp; &amp;nbsp; &amp;nbsp; &amp;nbsp; &amp;nbsp; &amp;nbsp; &amp;nbsp; &amp;nbsp; &amp;nbsp; &amp;nbsp; &amp;nbsp; &amp;nbsp; &amp;nbsp; &amp;nbsp; &amp;nbsp; &amp;nbsp;&amp;nbsp;&lt;i&gt;char&lt;/i&gt;&lt;br&gt;cast&lt;span style=&quot;white-space: pre;&quot;&gt; &lt;/span&gt;&lt;span style=&quot;white-space: pre;&quot;&gt; &lt;/span&gt;&lt;span style=&quot;white-space: pre;&quot;&gt; &lt;/span&gt;&lt;span style=&quot;white-space: pre;&quot;&gt; &lt;/span&gt;&lt;span style=&quot;white-space: pre;&quot;&gt; &lt;/span&gt;&lt;span style=&quot;white-space: pre;&quot;&gt; &lt;/span&gt;&amp;nbsp; &amp;nbsp; &amp;nbsp; &amp;nbsp; &amp;nbsp; &amp;nbsp; &amp;nbsp; &amp;nbsp; &amp;nbsp; &amp;nbsp; &amp;nbsp; &amp;nbsp; &amp;nbsp; &amp;nbsp; &amp;nbsp; &amp;nbsp; &amp;nbsp; &amp;nbsp; &amp;nbsp; &amp;nbsp; &amp;nbsp; &amp;nbsp; &amp;nbsp; &amp;nbsp;&amp;nbsp;&lt;i&gt;char&lt;/i&gt;&lt;br&gt;synopsis&amp;nbsp; &amp;nbsp; &amp;nbsp; &amp;nbsp; &amp;nbsp; &amp;nbsp; &amp;nbsp; &amp;nbsp; &amp;nbsp; &amp;nbsp; &amp;nbsp; &amp;nbsp; &amp;nbsp; &amp;nbsp; &amp;nbsp; &amp;nbsp; &amp;nbsp; &amp;nbsp; &amp;nbsp; &amp;nbsp; &amp;nbsp;&amp;nbsp;&lt;i&gt;varchar&lt;/i&gt;&lt;br&gt;rating&amp;nbsp; &amp;nbsp; &amp;nbsp; &amp;nbsp; &amp;nbsp; &amp;nbsp; &amp;nbsp; &amp;nbsp; &amp;nbsp; &amp;nbsp; &amp;nbsp; &amp;nbsp; &amp;nbsp; &amp;nbsp; &amp;nbsp; &amp;nbsp; &amp;nbsp; &amp;nbsp; &amp;nbsp; &amp;nbsp; &amp;nbsp; &amp;nbsp; &amp;nbsp; &amp;nbsp; &amp;nbsp; &amp;nbsp;&amp;nbsp;&lt;i&gt;float&lt;/i&gt;&lt;br&gt;duration_min&amp;nbsp; &amp;nbsp; &amp;nbsp; &amp;nbsp; &amp;nbsp; &amp;nbsp; &amp;nbsp; &amp;nbsp; &amp;nbsp; &amp;nbsp; &amp;nbsp; &amp;nbsp; &amp;nbsp; &amp;nbsp; &amp;nbsp; &amp;nbsp; &amp;nbsp; &amp;nbsp; &amp;nbsp; &amp;nbsp; &amp;nbsp; &amp;nbsp;&lt;i&gt;int&lt;/i&gt;" style="align=left;strokeColor=none;fillColor=none;spacingLeft=4;fontSize=12;verticalAlign=top;resizable=0;rotatable=0;part=1;html=1;" parent="QvHbqH3VG2zDnp77krn9-3" vertex="1">
          <mxGeometry y="50" width="252" height="133" as="geometry" />
        </mxCell>
        <mxCell id="QvHbqH3VG2zDnp77krn9-5" style="edgeStyle=orthogonalEdgeStyle;rounded=0;orthogonalLoop=1;jettySize=auto;html=1;entryX=0.5;entryY=0;entryDx=0;entryDy=0;exitX=0.5;exitY=1;exitDx=0;exitDy=0;" parent="1" source="uJ_gCBMD8Is41iQEiKez-10" target="QvHbqH3VG2zDnp77krn9-3" edge="1">
          <mxGeometry relative="1" as="geometry">
            <mxPoint x="353" y="562" as="sourcePoint" />
          </mxGeometry>
        </mxCell>
        <mxCell id="uJ_gCBMD8Is41iQEiKez-37" value="&lt;h1&gt;4&lt;/h1&gt;" style="ellipse;whiteSpace=wrap;html=1;aspect=fixed;" parent="1" vertex="1">
          <mxGeometry x="-190" y="868" width="50" height="50" as="geometry" />
        </mxCell>
        <mxCell id="uJ_gCBMD8Is41iQEiKez-38" value="We create the SQL database&lt;br&gt;(python, pandas, MySQL)" style="text;html=1;align=center;verticalAlign=middle;resizable=0;points=[];autosize=1;strokeColor=none;fillColor=none;" parent="1" vertex="1">
          <mxGeometry x="-117" y="877" width="172" height="41" as="geometry" />
        </mxCell>
        <mxCell id="uJ_gCBMD8Is41iQEiKez-43" value="" style="endArrow=none;dashed=1;html=1;dashPattern=1 3;strokeWidth=2;rounded=0;entryX=0.5;entryY=1;entryDx=0;entryDy=0;exitX=0.5;exitY=0;exitDx=0;exitDy=0;" parent="1" source="uJ_gCBMD8Is41iQEiKez-37" target="uJ_gCBMD8Is41iQEiKez-31" edge="1">
          <mxGeometry width="50" height="50" relative="1" as="geometry">
            <mxPoint x="265" y="634" as="sourcePoint" />
            <mxPoint x="315" y="584" as="targetPoint" />
          </mxGeometry>
        </mxCell>
        <mxCell id="zdwxxOiPnPcNy7VdiFuk-2" value="&lt;h1&gt;5&lt;/h1&gt;" style="ellipse;whiteSpace=wrap;html=1;aspect=fixed;" vertex="1" parent="1">
          <mxGeometry x="-190" y="1111" width="50" height="50" as="geometry" />
        </mxCell>
        <mxCell id="zdwxxOiPnPcNy7VdiFuk-3" value="" style="endArrow=none;dashed=1;html=1;dashPattern=1 3;strokeWidth=2;rounded=0;entryX=0.5;entryY=1;entryDx=0;entryDy=0;exitX=0.5;exitY=0;exitDx=0;exitDy=0;" edge="1" parent="1" source="zdwxxOiPnPcNy7VdiFuk-2" target="uJ_gCBMD8Is41iQEiKez-37">
          <mxGeometry width="50" height="50" relative="1" as="geometry">
            <mxPoint x="266" y="988" as="sourcePoint" />
            <mxPoint x="316" y="938" as="targetPoint" />
          </mxGeometry>
        </mxCell>
        <mxCell id="zdwxxOiPnPcNy7VdiFuk-4" style="edgeStyle=orthogonalEdgeStyle;rounded=0;orthogonalLoop=1;jettySize=auto;html=1;exitX=0.5;exitY=1;exitDx=0;exitDy=0;entryX=0.47;entryY=0.011;entryDx=0;entryDy=0;entryPerimeter=0;" edge="1" parent="1" source="QvHbqH3VG2zDnp77krn9-4" target="cxUHyoQVY_qUX_Ju6CSP-3">
          <mxGeometry relative="1" as="geometry" />
        </mxCell>
        <mxCell id="zdwxxOiPnPcNy7VdiFuk-5" value="We create/populate the table&amp;nbsp;&lt;i&gt;predictions &lt;br&gt;&lt;/i&gt;with the results of the recommandations&lt;br&gt;(python, sklearn, MySQL)" style="text;html=1;align=center;verticalAlign=middle;resizable=0;points=[];autosize=1;strokeColor=none;fillColor=none;" vertex="1" parent="1">
          <mxGeometry x="-117" y="1115" width="233" height="55" as="geometry" />
        </mxCell>
      </root>
    </mxGraphModel>
  </diagram>
  <diagram id="72tIj8jKbOb-f7-PiUwa" name="data_model">
    <mxGraphModel dx="1659" dy="672" grid="0" gridSize="10" guides="1" tooltips="1" connect="1" arrows="1" fold="1" page="0" pageScale="1" pageWidth="827" pageHeight="1169" math="0" shadow="0">
      <root>
        <mxCell id="0" />
        <mxCell id="1" parent="0" />
        <mxCell id="RLCvKZZ4n4_MHMew93HY-6" value="" style="rounded=0;whiteSpace=wrap;html=1;" parent="1" vertex="1">
          <mxGeometry x="-97" y="81" width="1158" height="586" as="geometry" />
        </mxCell>
        <mxCell id="RLCvKZZ4n4_MHMew93HY-7" value="&lt;b&gt;recommandation&lt;/b&gt;" style="text;html=1;strokeColor=none;fillColor=none;align=center;verticalAlign=middle;whiteSpace=wrap;rounded=0;" parent="1" vertex="1">
          <mxGeometry x="973" y="90" width="60" height="30" as="geometry" />
        </mxCell>
        <mxCell id="RLCvKZZ4n4_MHMew93HY-3" value="users" style="swimlane;childLayout=stackLayout;horizontal=1;startSize=50;horizontalStack=0;rounded=1;fontSize=14;fontStyle=0;strokeWidth=2;resizeParent=0;resizeLast=1;shadow=0;dashed=0;align=center;arcSize=4;whiteSpace=wrap;html=1;" parent="1" vertex="1">
          <mxGeometry x="631" y="239" width="252" height="183" as="geometry" />
        </mxCell>
        <mxCell id="RLCvKZZ4n4_MHMew93HY-5" value="predictions" style="swimlane;childLayout=stackLayout;horizontal=1;startSize=50;horizontalStack=0;rounded=1;fontSize=14;fontStyle=0;strokeWidth=2;resizeParent=0;resizeLast=1;shadow=0;dashed=0;align=center;arcSize=4;whiteSpace=wrap;html=1;" parent="1" vertex="1">
          <mxGeometry x="297" y="239" width="252" height="183" as="geometry" />
        </mxCell>
        <mxCell id="RLCvKZZ4n4_MHMew93HY-1" value="films" style="swimlane;childLayout=stackLayout;horizontal=1;startSize=50;horizontalStack=0;rounded=1;fontSize=14;fontStyle=0;strokeWidth=2;resizeParent=0;resizeLast=1;shadow=0;dashed=0;align=center;arcSize=4;whiteSpace=wrap;html=1;" parent="1" vertex="1">
          <mxGeometry x="-38" y="239" width="252" height="183" as="geometry" />
        </mxCell>
        <mxCell id="RLCvKZZ4n4_MHMew93HY-2" value="rank&amp;nbsp; &amp;nbsp; &amp;nbsp; &amp;nbsp; &amp;nbsp; &amp;nbsp; &amp;nbsp; &amp;nbsp; &amp;nbsp; &amp;nbsp; &amp;nbsp; &amp;nbsp; &amp;nbsp; &amp;nbsp; &amp;nbsp; &amp;nbsp; &amp;nbsp; &amp;nbsp; &amp;nbsp; &amp;nbsp; &amp;nbsp; &amp;nbsp; &amp;nbsp; &amp;nbsp; &amp;nbsp; &amp;nbsp; &amp;nbsp; &amp;nbsp; &amp;nbsp;&lt;i&gt;int&lt;/i&gt;&lt;br&gt;title&amp;nbsp; &amp;nbsp; &amp;nbsp; &amp;nbsp; &amp;nbsp; &amp;nbsp; &amp;nbsp; &amp;nbsp; &amp;nbsp; &amp;nbsp; &amp;nbsp; &amp;nbsp; &amp;nbsp; &amp;nbsp; &amp;nbsp; &amp;nbsp; &amp;nbsp; &amp;nbsp; &amp;nbsp; &amp;nbsp; &amp;nbsp; &amp;nbsp; &amp;nbsp; &amp;nbsp; &amp;nbsp; &amp;nbsp;&lt;i&gt;varchar&lt;/i&gt;&lt;br&gt;genres&amp;nbsp; &amp;nbsp; &amp;nbsp; &amp;nbsp; &amp;nbsp; &amp;nbsp; &amp;nbsp; &amp;nbsp; &amp;nbsp; &amp;nbsp; &amp;nbsp; &amp;nbsp; &amp;nbsp; &amp;nbsp; &amp;nbsp; &amp;nbsp; &amp;nbsp; &amp;nbsp; &amp;nbsp; &amp;nbsp; &amp;nbsp; &amp;nbsp; &amp;nbsp; &amp;nbsp; &amp;nbsp;&amp;nbsp;&lt;i&gt;char&lt;/i&gt;&lt;br&gt;director&amp;nbsp;&lt;span style=&quot;white-space: pre;&quot;&gt; &lt;/span&gt;&lt;span style=&quot;white-space: pre;&quot;&gt; &lt;/span&gt;&lt;span style=&quot;white-space: pre;&quot;&gt; &lt;/span&gt;&lt;span style=&quot;white-space: pre;&quot;&gt; &lt;/span&gt;&lt;span style=&quot;white-space: pre;&quot;&gt; &lt;/span&gt;&lt;span style=&quot;white-space: pre;&quot;&gt; &lt;/span&gt;&amp;nbsp; &amp;nbsp; &amp;nbsp; &amp;nbsp; &amp;nbsp; &amp;nbsp; &amp;nbsp; &amp;nbsp; &amp;nbsp; &amp;nbsp; &amp;nbsp; &amp;nbsp; &amp;nbsp; &amp;nbsp; &amp;nbsp; &amp;nbsp; &amp;nbsp; &amp;nbsp; &amp;nbsp; &amp;nbsp; &amp;nbsp;&amp;nbsp;&lt;i&gt;char&lt;/i&gt;&lt;br&gt;cast&lt;span style=&quot;white-space: pre;&quot;&gt; &lt;/span&gt;&lt;span style=&quot;white-space: pre;&quot;&gt; &lt;/span&gt;&lt;span style=&quot;white-space: pre;&quot;&gt; &lt;/span&gt;&lt;span style=&quot;white-space: pre;&quot;&gt; &lt;/span&gt;&lt;span style=&quot;white-space: pre;&quot;&gt; &lt;/span&gt;&lt;span style=&quot;white-space: pre;&quot;&gt; &lt;/span&gt;&amp;nbsp; &amp;nbsp; &amp;nbsp; &amp;nbsp; &amp;nbsp; &amp;nbsp; &amp;nbsp; &amp;nbsp; &amp;nbsp; &amp;nbsp; &amp;nbsp; &amp;nbsp; &amp;nbsp; &amp;nbsp; &amp;nbsp; &amp;nbsp; &amp;nbsp; &amp;nbsp; &amp;nbsp; &amp;nbsp; &amp;nbsp; &amp;nbsp; &amp;nbsp; &amp;nbsp;&amp;nbsp;&lt;i&gt;char&lt;/i&gt;&lt;br&gt;synopsis&amp;nbsp; &amp;nbsp; &amp;nbsp; &amp;nbsp; &amp;nbsp; &amp;nbsp; &amp;nbsp; &amp;nbsp; &amp;nbsp; &amp;nbsp; &amp;nbsp; &amp;nbsp; &amp;nbsp; &amp;nbsp; &amp;nbsp; &amp;nbsp; &amp;nbsp; &amp;nbsp; &amp;nbsp; &amp;nbsp; &amp;nbsp;&amp;nbsp;&lt;i&gt;varchar&lt;/i&gt;&lt;br&gt;rating&amp;nbsp; &amp;nbsp; &amp;nbsp; &amp;nbsp; &amp;nbsp; &amp;nbsp; &amp;nbsp; &amp;nbsp; &amp;nbsp; &amp;nbsp; &amp;nbsp; &amp;nbsp; &amp;nbsp; &amp;nbsp; &amp;nbsp; &amp;nbsp; &amp;nbsp; &amp;nbsp; &amp;nbsp; &amp;nbsp; &amp;nbsp; &amp;nbsp; &amp;nbsp; &amp;nbsp; &amp;nbsp; &amp;nbsp;&amp;nbsp;&lt;i&gt;float&lt;/i&gt;&lt;br&gt;duration_min&amp;nbsp; &amp;nbsp; &amp;nbsp; &amp;nbsp; &amp;nbsp; &amp;nbsp; &amp;nbsp; &amp;nbsp; &amp;nbsp; &amp;nbsp; &amp;nbsp; &amp;nbsp; &amp;nbsp; &amp;nbsp; &amp;nbsp; &amp;nbsp; &amp;nbsp; &amp;nbsp; &amp;nbsp; &amp;nbsp; &amp;nbsp; &amp;nbsp;&lt;i&gt;int&lt;/i&gt;" style="align=left;strokeColor=none;fillColor=none;spacingLeft=4;fontSize=12;verticalAlign=top;resizable=0;rotatable=0;part=1;html=1;" parent="RLCvKZZ4n4_MHMew93HY-1" vertex="1">
          <mxGeometry y="50" width="252" height="133" as="geometry" />
        </mxCell>
      </root>
    </mxGraphModel>
  </diagram>
  <diagram id="d2R8puj5u2BII2wm_OwK" name="implementation">
    <mxGraphModel dx="1243" dy="1835" grid="0" gridSize="10" guides="1" tooltips="1" connect="1" arrows="1" fold="1" page="0" pageScale="1" pageWidth="827" pageHeight="1169" math="0" shadow="0">
      <root>
        <mxCell id="0" />
        <mxCell id="1" parent="0" />
        <mxCell id="cdfig3p3Z5S5P6PsbLWx-19" style="edgeStyle=orthogonalEdgeStyle;rounded=0;orthogonalLoop=1;jettySize=auto;html=1;exitX=0.5;exitY=1;exitDx=0;exitDy=0;entryX=0.5;entryY=0;entryDx=0;entryDy=0;" edge="1" parent="1" source="cdfig3p3Z5S5P6PsbLWx-2" target="cdfig3p3Z5S5P6PsbLWx-18">
          <mxGeometry relative="1" as="geometry" />
        </mxCell>
        <mxCell id="cdfig3p3Z5S5P6PsbLWx-21" style="edgeStyle=orthogonalEdgeStyle;rounded=0;orthogonalLoop=1;jettySize=auto;html=1;exitX=0.5;exitY=1;exitDx=0;exitDy=0;" edge="1" parent="1" source="cdfig3p3Z5S5P6PsbLWx-2" target="cdfig3p3Z5S5P6PsbLWx-4">
          <mxGeometry relative="1" as="geometry" />
        </mxCell>
        <mxCell id="cdfig3p3Z5S5P6PsbLWx-26" style="edgeStyle=orthogonalEdgeStyle;rounded=0;orthogonalLoop=1;jettySize=auto;html=1;exitX=0;exitY=0.5;exitDx=0;exitDy=0;entryX=1;entryY=0.5;entryDx=0;entryDy=0;strokeColor=#BECFBD;" edge="1" parent="1" source="cdfig3p3Z5S5P6PsbLWx-2" target="cdfig3p3Z5S5P6PsbLWx-25">
          <mxGeometry relative="1" as="geometry" />
        </mxCell>
        <mxCell id="cdfig3p3Z5S5P6PsbLWx-2" value="PREDICTION" style="rounded=0;whiteSpace=wrap;html=1;fillColor=#dae8fc;strokeColor=#6c8ebf;" vertex="1" parent="1">
          <mxGeometry x="-150" y="111" width="154" height="37" as="geometry" />
        </mxCell>
        <mxCell id="cdfig3p3Z5S5P6PsbLWx-17" style="edgeStyle=orthogonalEdgeStyle;rounded=0;orthogonalLoop=1;jettySize=auto;html=1;exitX=0.5;exitY=1;exitDx=0;exitDy=0;entryX=0.5;entryY=0;entryDx=0;entryDy=0;" edge="1" parent="1" source="cdfig3p3Z5S5P6PsbLWx-3" target="cdfig3p3Z5S5P6PsbLWx-2">
          <mxGeometry relative="1" as="geometry" />
        </mxCell>
        <mxCell id="cdfig3p3Z5S5P6PsbLWx-53" style="edgeStyle=orthogonalEdgeStyle;rounded=0;orthogonalLoop=1;jettySize=auto;html=1;exitX=0;exitY=0.5;exitDx=0;exitDy=0;strokeColor=#c0cec0;" edge="1" parent="1" source="cdfig3p3Z5S5P6PsbLWx-3" target="cdfig3p3Z5S5P6PsbLWx-42">
          <mxGeometry relative="1" as="geometry">
            <Array as="points">
              <mxPoint x="-207" y="68" />
              <mxPoint x="-207" y="170" />
              <mxPoint x="-400" y="170" />
            </Array>
          </mxGeometry>
        </mxCell>
        <mxCell id="cdfig3p3Z5S5P6PsbLWx-3" value="SAISIE" style="rounded=0;whiteSpace=wrap;html=1;fillColor=#dae8fc;strokeColor=#6c8ebf;" vertex="1" parent="1">
          <mxGeometry x="-150" y="49" width="154" height="37" as="geometry" />
        </mxCell>
        <mxCell id="cdfig3p3Z5S5P6PsbLWx-4" value="QUITTER" style="rounded=0;whiteSpace=wrap;html=1;fillColor=#dae8fc;strokeColor=#6c8ebf;" vertex="1" parent="1">
          <mxGeometry x="-279" y="207" width="154" height="37" as="geometry" />
        </mxCell>
        <mxCell id="cdfig3p3Z5S5P6PsbLWx-16" style="edgeStyle=orthogonalEdgeStyle;rounded=0;orthogonalLoop=1;jettySize=auto;html=1;exitX=0.5;exitY=1;exitDx=0;exitDy=0;entryX=0.5;entryY=0;entryDx=0;entryDy=0;" edge="1" parent="1" source="cdfig3p3Z5S5P6PsbLWx-5" target="cdfig3p3Z5S5P6PsbLWx-3">
          <mxGeometry relative="1" as="geometry" />
        </mxCell>
        <mxCell id="cdfig3p3Z5S5P6PsbLWx-5" value="API" style="rounded=0;whiteSpace=wrap;html=1;fillColor=#dae8fc;strokeColor=#6c8ebf;" vertex="1" parent="1">
          <mxGeometry x="-150" y="-13" width="154" height="37" as="geometry" />
        </mxCell>
        <mxCell id="cdfig3p3Z5S5P6PsbLWx-6" value="UTILISATEUR" style="text;html=1;strokeColor=none;fillColor=none;align=center;verticalAlign=middle;whiteSpace=wrap;rounded=0;" vertex="1" parent="1">
          <mxGeometry x="-126.5" y="-216" width="107" height="30" as="geometry" />
        </mxCell>
        <mxCell id="cdfig3p3Z5S5P6PsbLWx-13" style="edgeStyle=orthogonalEdgeStyle;rounded=0;orthogonalLoop=1;jettySize=auto;html=1;exitX=0.75;exitY=1;exitDx=0;exitDy=0;entryX=0.5;entryY=0;entryDx=0;entryDy=0;" edge="1" parent="1" source="cdfig3p3Z5S5P6PsbLWx-8" target="cdfig3p3Z5S5P6PsbLWx-5">
          <mxGeometry relative="1" as="geometry" />
        </mxCell>
        <mxCell id="cdfig3p3Z5S5P6PsbLWx-39" style="edgeStyle=orthogonalEdgeStyle;rounded=0;orthogonalLoop=1;jettySize=auto;html=1;exitX=0.42;exitY=0.02;exitDx=0;exitDy=0;entryX=1;entryY=0.75;entryDx=0;entryDy=0;exitPerimeter=0;fillColor=#d5e8d4;strokeColor=#BECFBD;" edge="1" parent="1" source="cdfig3p3Z5S5P6PsbLWx-8" target="cdfig3p3Z5S5P6PsbLWx-27">
          <mxGeometry relative="1" as="geometry" />
        </mxCell>
        <mxCell id="cdfig3p3Z5S5P6PsbLWx-8" value="NOUVEL UTILISATEUR" style="rounded=0;whiteSpace=wrap;html=1;fillColor=#dae8fc;strokeColor=#6c8ebf;" vertex="1" parent="1">
          <mxGeometry x="-279" y="-106" width="154" height="37" as="geometry" />
        </mxCell>
        <mxCell id="cdfig3p3Z5S5P6PsbLWx-14" style="edgeStyle=orthogonalEdgeStyle;rounded=0;orthogonalLoop=1;jettySize=auto;html=1;exitX=0.5;exitY=1;exitDx=0;exitDy=0;" edge="1" parent="1" source="cdfig3p3Z5S5P6PsbLWx-9">
          <mxGeometry relative="1" as="geometry">
            <mxPoint x="-73" y="-13" as="targetPoint" />
          </mxGeometry>
        </mxCell>
        <mxCell id="cdfig3p3Z5S5P6PsbLWx-28" style="edgeStyle=orthogonalEdgeStyle;rounded=0;orthogonalLoop=1;jettySize=auto;html=1;exitX=0.25;exitY=0;exitDx=0;exitDy=0;entryX=1;entryY=0.25;entryDx=0;entryDy=0;strokeColor=#BECFBD;" edge="1" parent="1" source="cdfig3p3Z5S5P6PsbLWx-9" target="cdfig3p3Z5S5P6PsbLWx-27">
          <mxGeometry relative="1" as="geometry" />
        </mxCell>
        <mxCell id="cdfig3p3Z5S5P6PsbLWx-9" value="IDENTIFICATION" style="rounded=0;whiteSpace=wrap;html=1;fillColor=#dae8fc;strokeColor=#6c8ebf;" vertex="1" parent="1">
          <mxGeometry x="-48" y="-106" width="154" height="37" as="geometry" />
        </mxCell>
        <mxCell id="cdfig3p3Z5S5P6PsbLWx-11" value="" style="endArrow=classic;html=1;rounded=0;entryX=0.5;entryY=0;entryDx=0;entryDy=0;exitX=0.5;exitY=1;exitDx=0;exitDy=0;" edge="1" parent="1" source="cdfig3p3Z5S5P6PsbLWx-6" target="cdfig3p3Z5S5P6PsbLWx-8">
          <mxGeometry width="50" height="50" relative="1" as="geometry">
            <mxPoint x="-33" y="368" as="sourcePoint" />
            <mxPoint x="17" y="318" as="targetPoint" />
          </mxGeometry>
        </mxCell>
        <mxCell id="cdfig3p3Z5S5P6PsbLWx-12" value="" style="endArrow=classic;html=1;rounded=0;entryX=0.5;entryY=0;entryDx=0;entryDy=0;exitX=0.5;exitY=1;exitDx=0;exitDy=0;" edge="1" parent="1" source="cdfig3p3Z5S5P6PsbLWx-6" target="cdfig3p3Z5S5P6PsbLWx-9">
          <mxGeometry width="50" height="50" relative="1" as="geometry">
            <mxPoint x="-79" y="-151" as="sourcePoint" />
            <mxPoint x="-192" y="-96" as="targetPoint" />
          </mxGeometry>
        </mxCell>
        <mxCell id="cdfig3p3Z5S5P6PsbLWx-24" style="edgeStyle=orthogonalEdgeStyle;rounded=0;orthogonalLoop=1;jettySize=auto;html=1;exitX=1;exitY=0.5;exitDx=0;exitDy=0;entryX=1;entryY=0.5;entryDx=0;entryDy=0;" edge="1" parent="1" source="cdfig3p3Z5S5P6PsbLWx-18" target="cdfig3p3Z5S5P6PsbLWx-3">
          <mxGeometry relative="1" as="geometry" />
        </mxCell>
        <mxCell id="cdfig3p3Z5S5P6PsbLWx-18" value="NOUVELLE PREDICTION" style="rounded=0;whiteSpace=wrap;html=1;fillColor=#dae8fc;strokeColor=#6c8ebf;" vertex="1" parent="1">
          <mxGeometry x="-48" y="207" width="154" height="37" as="geometry" />
        </mxCell>
        <mxCell id="cdfig3p3Z5S5P6PsbLWx-25" value="BDD LOGS&lt;br&gt;predictions" style="rounded=0;whiteSpace=wrap;html=1;fillColor=#d5e8d4;strokeColor=#82b366;" vertex="1" parent="1">
          <mxGeometry x="-477" y="61" width="154" height="69" as="geometry" />
        </mxCell>
        <mxCell id="cdfig3p3Z5S5P6PsbLWx-30" style="edgeStyle=orthogonalEdgeStyle;rounded=0;orthogonalLoop=1;jettySize=auto;html=1;exitX=0.5;exitY=1;exitDx=0;exitDy=0;entryX=0;entryY=0.5;entryDx=0;entryDy=0;strokeColor=#BECFBD;" edge="1" parent="1" source="cdfig3p3Z5S5P6PsbLWx-27" target="cdfig3p3Z5S5P6PsbLWx-5">
          <mxGeometry relative="1" as="geometry" />
        </mxCell>
        <mxCell id="cdfig3p3Z5S5P6PsbLWx-27" value="BDD UTILISATEURS&lt;br&gt;users" style="rounded=0;whiteSpace=wrap;html=1;fillColor=#D5E8D4;strokeColor=#82b366;" vertex="1" parent="1">
          <mxGeometry x="-477" y="-177" width="154" height="69" as="geometry" />
        </mxCell>
        <mxCell id="cdfig3p3Z5S5P6PsbLWx-31" value="&lt;font style=&quot;font-size: 9px;&quot;&gt;Appel sur présence username &amp;amp; password dans la BDD&lt;/font&gt;" style="text;html=1;strokeColor=none;fillColor=none;align=center;verticalAlign=middle;whiteSpace=wrap;rounded=0;" vertex="1" parent="1">
          <mxGeometry x="-314" y="-184" width="237" height="30" as="geometry" />
        </mxCell>
        <mxCell id="cdfig3p3Z5S5P6PsbLWx-34" value="&lt;font style=&quot;font-size: 9px;&quot;&gt;Ajout nouvel utilisateur&lt;/font&gt;" style="text;html=1;strokeColor=none;fillColor=none;align=center;verticalAlign=middle;whiteSpace=wrap;rounded=0;" vertex="1" parent="1">
          <mxGeometry x="-316" y="-149" width="107" height="27" as="geometry" />
        </mxCell>
        <mxCell id="cdfig3p3Z5S5P6PsbLWx-40" value="&lt;font style=&quot;font-size: 9px;&quot;&gt;Renvois authorisation &amp;amp; accès à l&#39;API&lt;/font&gt;" style="text;html=1;strokeColor=none;fillColor=none;align=center;verticalAlign=middle;whiteSpace=wrap;rounded=0;" vertex="1" parent="1">
          <mxGeometry x="-399" y="-19" width="237" height="30" as="geometry" />
        </mxCell>
        <mxCell id="cdfig3p3Z5S5P6PsbLWx-41" value="&lt;font style=&quot;font-size: 9px;&quot;&gt;Ajout données logs&lt;/font&gt;" style="text;html=1;strokeColor=none;fillColor=none;align=center;verticalAlign=middle;whiteSpace=wrap;rounded=0;" vertex="1" parent="1">
          <mxGeometry x="-323" y="71" width="125" height="30" as="geometry" />
        </mxCell>
        <mxCell id="cdfig3p3Z5S5P6PsbLWx-57" style="edgeStyle=orthogonalEdgeStyle;rounded=0;orthogonalLoop=1;jettySize=auto;html=1;exitX=0.75;exitY=0;exitDx=0;exitDy=0;entryX=0;entryY=0.75;entryDx=0;entryDy=0;fillColor=#d5e8d4;strokeColor=#C0D1BF;" edge="1" parent="1" source="cdfig3p3Z5S5P6PsbLWx-42" target="cdfig3p3Z5S5P6PsbLWx-3">
          <mxGeometry relative="1" as="geometry">
            <Array as="points">
              <mxPoint x="-361" y="187" />
              <mxPoint x="-218" y="187" />
              <mxPoint x="-218" y="77" />
            </Array>
          </mxGeometry>
        </mxCell>
        <mxCell id="cdfig3p3Z5S5P6PsbLWx-42" value="BDD DATA&lt;br&gt;films" style="rounded=0;whiteSpace=wrap;html=1;fillColor=#d5e8d4;strokeColor=#82b366;" vertex="1" parent="1">
          <mxGeometry x="-477" y="233" width="154" height="69" as="geometry" />
        </mxCell>
        <mxCell id="cdfig3p3Z5S5P6PsbLWx-44" style="edgeStyle=orthogonalEdgeStyle;rounded=0;orthogonalLoop=1;jettySize=auto;html=1;exitX=0;exitY=0.5;exitDx=0;exitDy=0;entryX=1;entryY=0.5;entryDx=0;entryDy=0;strokeColor=#e4b990;" edge="1" parent="1" source="cdfig3p3Z5S5P6PsbLWx-43" target="cdfig3p3Z5S5P6PsbLWx-2">
          <mxGeometry relative="1" as="geometry" />
        </mxCell>
        <mxCell id="cdfig3p3Z5S5P6PsbLWx-43" value="MODELE" style="rounded=0;whiteSpace=wrap;html=1;fillColor=#ffe6cc;strokeColor=#d79b00;" vertex="1" parent="1">
          <mxGeometry x="184" y="34" width="154" height="37" as="geometry" />
        </mxCell>
        <mxCell id="cdfig3p3Z5S5P6PsbLWx-45" value="&lt;font style=&quot;font-size: 9px;&quot;&gt;envois de la prédiction&lt;/font&gt;" style="text;html=1;strokeColor=none;fillColor=none;align=center;verticalAlign=middle;whiteSpace=wrap;rounded=0;" vertex="1" parent="1">
          <mxGeometry y="122" width="125" height="30" as="geometry" />
        </mxCell>
        <mxCell id="cdfig3p3Z5S5P6PsbLWx-47" style="edgeStyle=orthogonalEdgeStyle;rounded=0;orthogonalLoop=1;jettySize=auto;html=1;exitX=0.5;exitY=1;exitDx=0;exitDy=0;entryX=0.5;entryY=0;entryDx=0;entryDy=0;strokeColor=#d8ba9e;" edge="1" parent="1" source="cdfig3p3Z5S5P6PsbLWx-46" target="cdfig3p3Z5S5P6PsbLWx-43">
          <mxGeometry relative="1" as="geometry" />
        </mxCell>
        <mxCell id="cdfig3p3Z5S5P6PsbLWx-46" value="TRANSFORMATION" style="rounded=0;whiteSpace=wrap;html=1;fillColor=#ffe6cc;strokeColor=#d79b00;" vertex="1" parent="1">
          <mxGeometry x="184" y="-22.5" width="154" height="37" as="geometry" />
        </mxCell>
        <mxCell id="cdfig3p3Z5S5P6PsbLWx-50" style="edgeStyle=orthogonalEdgeStyle;rounded=0;orthogonalLoop=1;jettySize=auto;html=1;exitX=1;exitY=0.25;exitDx=0;exitDy=0;entryX=0;entryY=0.25;entryDx=0;entryDy=0;strokeColor=#e4b990;" edge="1" parent="1" source="cdfig3p3Z5S5P6PsbLWx-3" target="cdfig3p3Z5S5P6PsbLWx-46">
          <mxGeometry relative="1" as="geometry">
            <mxPoint x="211" y="-6" as="sourcePoint" />
            <mxPoint x="31" y="71" as="targetPoint" />
            <Array as="points">
              <mxPoint x="85" y="58" />
              <mxPoint x="85" y="-13" />
            </Array>
          </mxGeometry>
        </mxCell>
        <mxCell id="cdfig3p3Z5S5P6PsbLWx-51" value="&lt;font style=&quot;font-size: 9px;&quot;&gt;envois des données saisies&lt;/font&gt;" style="text;html=1;strokeColor=none;fillColor=none;align=center;verticalAlign=middle;whiteSpace=wrap;rounded=0;" vertex="1" parent="1">
          <mxGeometry x="55" y="-38" width="125" height="30" as="geometry" />
        </mxCell>
        <mxCell id="cdfig3p3Z5S5P6PsbLWx-54" value="&lt;font style=&quot;font-size: 9px;&quot;&gt;Appel sur présence title&lt;/font&gt;" style="text;html=1;strokeColor=none;fillColor=none;align=center;verticalAlign=middle;whiteSpace=wrap;rounded=0;" vertex="1" parent="1">
          <mxGeometry x="-374" y="145" width="112" height="30" as="geometry" />
        </mxCell>
        <mxCell id="cdfig3p3Z5S5P6PsbLWx-58" value="&lt;font style=&quot;font-size: 9px;&quot;&gt;Renvois title&lt;/font&gt;" style="text;html=1;strokeColor=none;fillColor=none;align=center;verticalAlign=middle;whiteSpace=wrap;rounded=0;" vertex="1" parent="1">
          <mxGeometry x="-359" y="178" width="112" height="30" as="geometry" />
        </mxCell>
      </root>
    </mxGraphModel>
  </diagram>
</mxfile>
